<?xml version="1.0" encoding="utf-8"?>
<!-- Generator: Adobe Illustrator 25.0.0, SVG Export Plug-In . SVG Version: 6.00 Build 0)  -->
<svg version="1.1" id="Capa_1" xmlns="http://www.w3.org/2000/svg" xmlns:xlink="http://www.w3.org/1999/xlink" x="0px" y="0px"
	 viewBox="0 0 30 27" style="enable-background:new 0 0 30 27;" xml:space="preserve">
<path d="M28.9,5.4C28.7,5.2,28.3,5,28,5H12.8c-0.7,0-1.2,0.5-1.2,1.2s0.5,1.2,1.2,1.2h13.7l-1.6,8.4H12.9L8.4,1.9
	C8.3,1.4,7.8,1.1,7.3,1.1H2c-0.7,0-1.2,0.5-1.2,1.2S1.4,3.5,2,3.5h4.4l5.4,16.6c-0.7,0.6-1.1,1.5-1.1,2.5c0,1.8,1.5,3.3,3.3,3.3
	c1.4,0,2.5-0.8,3-2h2.6c0.5,1.2,1.7,2,3,2c1.8,0,3.3-1.5,3.3-3.3s-1.5-3.3-3.3-3.3c-1.4,0-2.6,0.9-3.1,2.2H17
	c-0.4-1.2-1.6-2.1-3-2.2l-0.4-1.1h12.2c0.6,0,1.1-0.4,1.2-1l2.1-10.8C29.2,6.1,29.1,5.7,28.9,5.4z M22.6,21.5c0.6,0,1.1,0.5,1.1,1.1
	s-0.5,1.1-1.1,1.1c-0.6,0-1.1-0.5-1.1-1.1S22,21.5,22.6,21.5z M13.9,21.5c0.6,0,1.1,0.5,1.1,1.1s-0.5,1.1-1.1,1.1
	c-0.6,0-1.1-0.5-1.1-1.1S13.3,21.5,13.9,21.5z"/>
</svg>
